<svg xmlns="http://www.w3.org/2000/svg" viewBox="0 0 405.96 414.48"><defs><style>.cls-1{opacity:0.5;}.cls-2{fill:#9f5afd;}</style></defs><g id="Layer_2" data-name="Layer 2"><g id="Layer_1-2" data-name="Layer 1"><g class="cls-1"><path class="cls-2" d="M395,13.23c-5.7-12.15-22.14-17.57-36.75-9.17-17.46,10-46.29,28.42-80.89,72.46,0,0-79.45-35.79-150.17,4.37,0,0-69.78-80.47-96.56-78.14C6.78,4.83-15.09,41.6,13.72,140.26c0,0-6.27,43.51,12.07,71.45,0,0-12.06,37.35,19.32,77.77-1.17-2-25.51-43.53-10.17-76.77,0,0-19.3-25.62-10.74-75.36,0,0-30.74-68.62-4.89-114.08,8.44-14.85,27.2-2.18,38.05,7,15,12.67,33.06,43.86,38.43,82.07,3.08,21.9,24.16,30,41,29.28,65.3-3,94.06,42.43,93.53,100.75C229.67,309,376.06,265.26,349,337.57c-1.26,3.37,46.27-49.76,36.67-117.86,0,0-7.81-31.43,1.33-54.13C395,145.71,420.27,66.92,395,13.23ZM247.68,244.46c41.63,19.13,58.77-26,60.45-30.79C288.43,273.09,248.9,245.33,247.68,244.46Zm45-22.51c-11.27,36.21-36.41,13.19-36.41,13.19C281.7,248.43,291.75,224.36,292.68,222Zm-34.26,1.18a4,4,0,1,1,4,4A4,4,0,0,1,258.42,223.13Zm52.73-12.4c-2.75-.26-6.69-.46-11.35-.77-2.33,0-4.85-.25-7.5-.22h-4.06c-1.38.1-2.78.11-4.21.17a86.49,86.49,0,0,0-8.65.93,47.25,47.25,0,0,0-8.51,2.1,32.12,32.12,0,0,0-7.71,3.64,27.12,27.12,0,0,0-6.2,5.28,29.66,29.66,0,0,0-4.3,6.44A41.73,41.73,0,0,0,246.1,235a55.81,55.81,0,0,0-1.81,11,42.69,42.69,0,0,0-.12,4.34,27.34,27.34,0,0,1-1.17-4.25,39.3,39.3,0,0,1-.58-11.74,32.15,32.15,0,0,1,6.05-16,29,29,0,0,1,7.17-6.93,39.27,39.27,0,0,1,9.1-4.59,53.68,53.68,0,0,1,9.74-2.16,59.77,59.77,0,0,1,9.46-.45c1.53.08,3,.1,4.48.21l4.24.52c2.76.26,5.3.93,7.65,1.37s4.45,1.14,6.33,1.65,3.46,1.13,4.77,1.57c2.63.94,4.1,1.54,4.1,1.54S313.91,210.94,311.15,210.73Zm71-60.77s-18.08,20.34-25.43-5.08c-5.51-19.08-21.19-13.67-28.69-9.78a16.63,16.63,0,0,1-11.33,1.37c-11.44-2.57-32.77-20.92-18.26-50.36,0,0,23.88-47.5,67.88-70.78,6.77-3.58,13.31-2.82,16.61,4.1C391.39,37.2,402.17,77.36,382.16,150Z"/><path class="cls-2" d="M86.1,209.9s13.68-.91,17.79,3.65c0,0,.45,48.79,52.44,31a9.82,9.82,0,0,1,5.92,7.3S175.48,188.93,86.1,209.9Zm38.08,9.2a4,4,0,1,1-4,4A4,4,0,0,1,124.18,219.1ZM111.4,222c.93,2.41,11,26.48,36.41,13.19C147.81,235.14,122.67,258.16,111.4,222Z"/><path class="cls-2" d="M247.3,362l-2.06,1.19c-.8.45-1.79.78-2.81,1.23l-1.61.67-1.81.48a20.56,20.56,0,0,1-3.9.82,21.8,21.8,0,0,1-4.22.33,25.41,25.41,0,0,1-4.35-.21,38,38,0,0,1-4.27-.72c-1.38-.38-2.74-.71-4-1.17a47.56,47.56,0,0,1-6.78-2.95,47,47,0,0,1-4.43-2.68c-1-.7-1.46-1.08-1.51-1.12a6.91,6.91,0,0,1-2.53-4.25,62,62,0,0,1-.95-7.26,60.66,60.66,0,0,1-1,7.26,6.87,6.87,0,0,1-2.52,4.25c-.06,0-.5.42-1.52,1.12a47,47,0,0,1-4.43,2.68,47.56,47.56,0,0,1-6.78,2.95c-1.28.46-2.64.79-4,1.17a37.66,37.66,0,0,1-4.27.72,25.35,25.35,0,0,1-4.34.21,21.84,21.84,0,0,1-4.23-.33,20.73,20.73,0,0,1-3.9-.82l-1.8-.48-1.61-.67c-1-.45-2-.78-2.82-1.23L156.79,362,155,360.9l1.65,1.27,1.91,1.47c.75.56,1.7,1,2.69,1.62.51.28,1,.59,1.57.9l1.79.74a22.35,22.35,0,0,0,4,1.39,23.53,23.53,0,0,0,4.43.93,28.21,28.21,0,0,0,4.7.38,39,39,0,0,0,4.72-.18c1.54-.21,3.08-.38,4.53-.7a52.89,52.89,0,0,0,7.84-2.26,50.3,50.3,0,0,0,5.33-2.35c.93-.47,1.59-.86,1.86-1l.07,0,.06,0c.28.16.94.55,1.86,1a51.25,51.25,0,0,0,5.33,2.35,52.89,52.89,0,0,0,7.84,2.26c1.45.32,3,.49,4.53.7a39.21,39.21,0,0,0,4.73.18,28.18,28.18,0,0,0,4.69-.38,23.53,23.53,0,0,0,4.43-.93,22.08,22.08,0,0,0,4-1.39l1.79-.74,1.57-.9c1-.6,1.94-1.06,2.69-1.62l1.91-1.47,1.66-1.27Z"/><path class="cls-2" d="M226.13,318.58s-3.87-6.36-13.18-4.32-10.9,2-10.9,2-1.59.09-10.91-2S178,318.58,178,318.58c-3.18,8.18,15.44,11.13,15,17.49s9.09,9.32,9.09,9.32,9.54-3,9.08-9.32S229.31,326.76,226.13,318.58Z"/><path class="cls-2" d="M182.55,326.11c.06,0-.31-.11-.77-.32a14.19,14.19,0,0,1-1.9-1.05,13.21,13.21,0,0,1-5.06-5.73,12.71,12.71,0,0,1-1-5,44.63,44.63,0,0,1,.6-5c.49-3.29,1-6.8,1.52-10.31a162.59,162.59,0,0,0,1.74-19.37,44.42,44.42,0,0,0-.31-6.4,24.13,24.13,0,0,0-.46-2.39s.3.84.66,2.36a44.86,44.86,0,0,1,.88,6.4,167.4,167.4,0,0,1-.07,19.62c-.22,3.55-.43,7.1-.63,10.43a45.2,45.2,0,0,0-.18,4.56,9,9,0,0,0,1,3.34,9.09,9.09,0,0,0,3.74,3.53,9.21,9.21,0,0,0,1.36.6l.43.14Z"/><path class="cls-2" d="M221.54,326.11c-.06,0,.31-.11.77-.32a14.19,14.19,0,0,0,1.91-1.05,13.26,13.26,0,0,0,5.05-5.73,12.9,12.9,0,0,0,1-5,47,47,0,0,0-.61-5c-.48-3.29-1-6.8-1.52-10.31a164.71,164.71,0,0,1-1.74-19.37,45.67,45.67,0,0,1,.32-6.4,22.81,22.81,0,0,1,.45-2.39s-.3.84-.66,2.36a46.36,46.36,0,0,0-.88,6.4,165.43,165.43,0,0,0,.08,19.62c.21,3.55.43,7.1.63,10.43.1,1.64.23,3.35.17,4.56a8.26,8.26,0,0,1-4.72,6.87,9.69,9.69,0,0,1-1.35.6l-.44.14Z"/><path class="cls-2" d="M250,327.85s59.62-11,143.49,44.22C393.51,372.07,313.88,310.61,250,327.85Z"/><path class="cls-2" d="M250,330.61s57.15-.57,126,64.37C376.06,395,312.11,325,250,330.61Z"/><path class="cls-2" d="M250,333.63s52.5,9.38,104.41,80.85C354.43,414.48,307.93,339.22,250,333.63Z"/><path class="cls-2" d="M154.07,327.85s-59.62-11-143.49,44.22C10.58,372.07,90.21,310.61,154.07,327.85Z"/><path class="cls-2" d="M154.07,330.61S96.92,330,28,395C28,395,92,325,154.07,330.61Z"/><path class="cls-2" d="M154.07,333.63S101.58,343,49.67,414.48C49.67,414.48,96.17,339.22,154.07,333.63Z"/></g></g></g></svg>