<svg xmlns="http://www.w3.org/2000/svg" viewBox="0 0 219.97 312.81"><defs><style>.cls-1{fill:#472a75;}.cls-2{opacity:0.9;}.cls-3{font-size:293.11px;fill:#fff;stroke:#41276b;stroke-miterlimit:10;stroke-width:3px;font-family:BebasNeuePro-Regular, Bebas Neue Pro;}</style></defs><g id="Layer_2" data-name="Layer 2"><g id="Layer_1-2" data-name="Layer 1"><g id="Layer_2-2" data-name="Layer 2"><g id="Layer_1-2-2" data-name="Layer 1-2"><path class="cls-1" d="M208.78,47.61c-2.9-6.3-11.4-9-18.9-4.7-9,5.1-23.8,14.6-41.6,37.3,0,0-40.9-18.4-77.3,2.2,0,0-35.9-41.4-49.7-40.2-12.3,1.1-23.5,20-8.7,70.7,0,0-3.2,22.4,6.2,36.8,0,0-6.2,19.2,9.9,40-.6-1-13.1-22.4-5.2-39.5,0,0-9.9-13.2-5.5-38.8,0,0-15.8-35.3-2.5-58.7,4.3-7.6,14-1.1,19.6,3.6,7.7,6.5,17,22.6,19.8,42.2,1.6,11.3,12.4,15.4,21.1,15.1,33.6-1.5,48.4,21.8,48.1,51.8-.3,34.3,75,11.8,61.1,49-.6,1.7,23.8-25.6,18.9-60.6,0,0-4-16.2.7-27.8C208.78,115.71,221.78,75.21,208.78,47.61ZM133,166.51c21.4,9.8,30.2-13.4,31.1-15.8C154,181.31,133.58,167,133,166.51Zm23.1-11.5c-5.8,18.6-18.7,6.8-18.7,6.8,13.1,6.8,18.3-5.6,18.7-6.8Zm-17.6.6a2.1,2.1,0,1,1,2.1,2.1,2.18,2.18,0,0,1-2.1-2.1Zm27.1-6.4c-1.4-.1-3.4-.2-5.8-.4-1.2,0-2.5-.1-3.9-.1h-2.1a15.48,15.48,0,0,1-2.2.1,34.41,34.41,0,0,0-4.5.5,21.81,21.81,0,0,0-4.4,1.1,16.24,16.24,0,0,0-4,1.9,13.9,13.9,0,0,0-3.2,2.7,14.61,14.61,0,0,0-2.2,3.3,23.67,23.67,0,0,0-1.3,3.4,27.1,27.1,0,0,0-.9,5.7,16.2,16.2,0,0,0-.1,2.2,7.94,7.94,0,0,1-.6-2.2,20.19,20.19,0,0,1-.3-6,17.12,17.12,0,0,1,3.1-8.2,15.81,15.81,0,0,1,3.7-3.6,20.84,20.84,0,0,1,4.7-2.4,27.84,27.84,0,0,1,5-1.1,26.44,26.44,0,0,1,4.9-.2c.8,0,1.5.1,2.3.1l2.2.3a39.1,39.1,0,0,1,3.9.7c1.2.2,2.3.6,3.3.8a25,25,0,0,1,2.5.8c1.4.5,2.1.8,2.1.8s-.7-.1-2.2-.2Zm36.6-31.3s-9.3,10.5-13.1-2.6c-2.8-9.8-10.9-7-14.8-5a8.38,8.38,0,0,1-5.8.7c-5.9-1.3-16.9-10.8-9.4-25.9,0,0,12.3-24.4,34.9-36.4,3.5-1.8,6.8-1.5,8.5,2.1,4.4,9.1,10,29.8-.3,67.1Z"/><path class="cls-1" d="M49.88,148.81s7-.5,9.2,1.9c0,0,.2,25.1,27,15.9a5.07,5.07,0,0,1,3,3.8C89,170.41,95.78,138,49.88,148.81Zm19.6,4.7a2.1,2.1,0,1,1-2.1,2.1,2.05,2.05,0,0,1,2.1-2.1Zm-6.6,1.5c.5,1.2,5.7,13.6,18.7,6.8C81.58,161.81,68.68,173.61,62.88,155Z"/><path class="cls-1" d="M132.78,227l-1.1.6c-.4.2-.9.4-1.4.6l-.8.3-.9.2a14.16,14.16,0,0,1-2,.4,15,15,0,0,1-2.2.2,16.2,16.2,0,0,1-2.2-.1,17,17,0,0,1-2.2-.4l-2.1-.6a21.69,21.69,0,0,1-3.5-1.5c-.8-.4-1.5-.9-2.3-1.4-.5-.4-.8-.6-.8-.6a3.16,3.16,0,0,1-1.3-2.2c-.2-1.2-.4-2.5-.5-3.7-.1,1.3-.3,2.5-.5,3.7a3.38,3.38,0,0,1-1.3,2.2s-.3.2-.8.6a17.61,17.61,0,0,1-2.3,1.4,21.69,21.69,0,0,1-3.5,1.5l-2.1.6a17,17,0,0,1-2.2.4,16.2,16.2,0,0,1-2.2.1,8.2,8.2,0,0,1-2.2-.2,11.8,11.8,0,0,1-2-.4l-.9-.2-.8-.3-1.5-.6-1.1-.6-.9-.6.8.7,1,.8c.4.3.9.5,1.4.8a3.51,3.51,0,0,1,.8.5l.9.4a17.23,17.23,0,0,0,2.1.7,15.54,15.54,0,0,0,2.3.5,19.29,19.29,0,0,0,4.8.1,15.72,15.72,0,0,0,2.3-.4,26.43,26.43,0,0,0,4-1.2,22.07,22.07,0,0,0,2.7-1.2,8.92,8.92,0,0,0,1-.5h0a4.34,4.34,0,0,0,1,.5,16,16,0,0,0,2.7,1.2,30.38,30.38,0,0,0,4,1.2,15.72,15.72,0,0,0,2.3.4,19.29,19.29,0,0,0,4.8-.1,9.48,9.48,0,0,0,2.3-.5,17.23,17.23,0,0,0,2.1-.7l.9-.4.8-.5c.5-.3,1-.5,1.4-.8l1-.8.9-.7Z"/><path class="cls-1" d="M121.88,204.71s-2-3.3-6.8-2.2a44.74,44.74,0,0,1-5.6,1,44.74,44.74,0,0,1-5.6-1c-4.8-1.1-6.8,2.2-6.8,2.2-1.6,4.2,7.9,5.7,7.7,9s4.7,4.8,4.7,4.8,4.9-1.5,4.7-4.8S123.48,208.91,121.88,204.71Z"/><path class="cls-1" d="M99.48,208.61l-.4-.2c-.3-.2-.7-.3-1-.5a7.29,7.29,0,0,1-2.6-2.9,7.51,7.51,0,0,1-.5-2.6c.1-.9.2-1.7.3-2.6.3-1.7.5-3.5.8-5.3a82.57,82.57,0,0,0,.9-10,18.29,18.29,0,0,0-.2-3.3c-.1-.4-.1-.8-.2-1.2a4,4,0,0,1,.3,1.2c.2,1.1.4,2.2.5,3.3a85.08,85.08,0,0,1,0,10.1c-.1,1.8-.2,3.7-.3,5.4a18.48,18.48,0,0,0-.1,2.3,4.8,4.8,0,0,0,.5,1.7,4.69,4.69,0,0,0,1.9,1.8c.2.1.5.2.7.3l.2.1Z"/><path class="cls-1" d="M119.48,208.61l.4-.2c.3-.2.7-.3,1-.5a7.29,7.29,0,0,0,2.6-2.9,7.51,7.51,0,0,0,.5-2.6c-.1-.9-.2-1.7-.3-2.6-.2-1.7-.5-3.5-.8-5.3a82.57,82.57,0,0,1-.9-10,18.29,18.29,0,0,1,.2-3.3c.1-.4.1-.8.2-1.2a4,4,0,0,0-.3,1.2c-.2,1.1-.4,2.2-.5,3.3a85.08,85.08,0,0,0,0,10.1c.1,1.8.2,3.7.3,5.4a19.3,19.3,0,0,1,.1,2.3,4.09,4.09,0,0,1-2.4,3.5c-.2.1-.5.2-.7.3l-.2.1Z"/><path class="cls-1" d="M134.18,209.51s30.7-5.7,73.8,22.8C208,232.21,167.08,200.61,134.18,209.51Z"/><path class="cls-1" d="M134.18,210.91s29.4-.3,64.8,33.1C199,244,166.08,208,134.18,210.91Z"/><path class="cls-1" d="M134.18,212.41s27,4.8,53.7,41.6C187.88,254,164,215.31,134.18,212.41Z"/><path class="cls-1" d="M84.78,209.51s-30.7-5.7-73.8,22.8C11,232.21,52,200.61,84.78,209.51Z"/><path class="cls-1" d="M84.78,210.91s-29.4-.3-64.9,33.1C20,244,52.88,208,84.78,210.91Z"/><path class="cls-1" d="M84.78,212.41s-27,4.8-53.7,41.6C31.08,254,55,215.31,84.78,212.41Z"/></g></g><g class="cls-2"><text class="cls-3" transform="translate(1.5 250.64) scale(1.85 1)">X</text></g></g></g></svg>