<?xml version="1.0" encoding="utf-8"?>
<!-- Generator: Adobe Illustrator 26.0.2, SVG Export Plug-In . SVG Version: 6.00 Build 0)  -->
<svg version="1.1" id="Layer_1" xmlns="http://www.w3.org/2000/svg" xmlns:xlink="http://www.w3.org/1999/xlink" x="0px" y="0px"
	 viewBox="0 0 216 216" style="enable-background:new 0 0 216 216;" xml:space="preserve">
<style type="text/css">
	.st0{fill:#FCFCFC;}
</style>
<g id="Layer_2_00000174584645226529088040000011053517091876849290_">
	<g id="Layer_1-2">
		<path class="st0" d="M206.8,8.2c-2.9-6.3-11.4-9-18.9-4.7c-9,5.1-23.8,14.6-41.6,37.3c0,0-40.9-18.4-77.3,2.2
			c0,0-35.9-41.4-49.7-40.2c-12.3,1.1-23.5,20-8.7,70.7c0,0-3.2,22.4,6.2,36.8c0,0-6.2,19.2,9.9,40c-0.6-1-13.1-22.4-5.2-39.5
			c0,0-9.9-13.2-5.5-38.8c0,0-15.8-35.3-2.5-58.7c4.3-7.6,14-1.1,19.6,3.6c7.7,6.5,17,22.6,19.8,42.2c1.6,11.3,12.4,15.4,21.1,15.1
			c33.6-1.5,48.4,21.8,48.1,51.8c-0.3,34.3,75,11.8,61.1,49c-0.6,1.7,23.8-25.6,18.9-60.6c0,0-4-16.2,0.7-27.8
			C206.8,76.3,219.8,35.8,206.8,8.2z M131,127.1c21.4,9.8,30.2-13.4,31.1-15.8C152,141.9,131.6,127.6,131,127.1z M154.1,115.6
			c-5.8,18.6-18.7,6.8-18.7,6.8C148.5,129.2,153.7,116.8,154.1,115.6L154.1,115.6z M136.5,116.2c0-1.1,0.9-2.1,2.1-2.1
			c1.1,0,2.1,0.9,2.1,2.1c0,1.1-0.9,2.1-2.1,2.1C137.4,118.2,136.5,117.3,136.5,116.2L136.5,116.2z M163.6,109.8
			c-1.4-0.1-3.4-0.2-5.8-0.4c-1.2,0-2.5-0.1-3.9-0.1h-2.1c-0.7,0.1-1.4,0.1-2.2,0.1c-1.5,0.1-3,0.2-4.5,0.5c-1.5,0.2-3,0.6-4.4,1.1
			c-1.4,0.4-2.7,1.1-4,1.9c-1.2,0.7-2.3,1.7-3.2,2.7c-0.9,1-1.6,2.1-2.2,3.3c-0.5,1.1-1,2.3-1.3,3.4c-0.5,1.9-0.8,3.7-0.9,5.7
			c-0.1,0.7-0.1,1.5-0.1,2.2c-0.3-0.7-0.5-1.4-0.6-2.2c-0.4-2-0.5-4-0.3-6c0.3-3,1.4-5.8,3.1-8.2c1-1.4,2.3-2.6,3.7-3.6
			c1.5-1,3-1.8,4.7-2.4c1.6-0.5,3.3-0.9,5-1.1c1.6-0.2,3.2-0.3,4.9-0.2c0.8,0,1.5,0.1,2.3,0.1l2.2,0.3c1.4,0.1,2.7,0.5,3.9,0.7
			c1.2,0.2,2.3,0.6,3.3,0.8s1.8,0.6,2.5,0.8c1.4,0.5,2.1,0.8,2.1,0.8S165.1,109.9,163.6,109.8L163.6,109.8z M200.2,78.5
			c0,0-9.3,10.5-13.1-2.6c-2.8-9.8-10.9-7-14.8-5c-1.8,0.9-3.9,1.2-5.8,0.7c-5.9-1.3-16.9-10.8-9.4-25.9c0,0,12.3-24.4,34.9-36.4
			c3.5-1.8,6.8-1.5,8.5,2.1C204.9,20.5,210.5,41.2,200.2,78.5L200.2,78.5z"/>
		<path class="st0" d="M47.9,109.4c0,0,7-0.5,9.2,1.9c0,0,0.2,25.1,27,15.9c1.6,0.7,2.7,2.1,3,3.8C87,131,93.8,98.6,47.9,109.4z
			 M67.5,114.1c1.1,0,2.1,0.9,2.1,2.1c0,1.1-0.9,2.1-2.1,2.1c-1.1,0-2.1-0.9-2.1-2.1C65.4,115,66.3,114.1,67.5,114.1L67.5,114.1z
			 M60.9,115.6c0.5,1.2,5.7,13.6,18.7,6.8C79.6,122.4,66.7,134.2,60.9,115.6z"/>
		<path class="st0" d="M130.8,187.6l-1.1,0.6c-0.4,0.2-0.9,0.4-1.4,0.6l-0.8,0.3l-0.9,0.2c-0.7,0.2-1.3,0.3-2,0.4
			c-0.7,0.1-1.4,0.2-2.2,0.2c-0.7,0-1.5,0-2.2-0.1c-0.7-0.1-1.5-0.2-2.2-0.4c-0.7-0.2-1.4-0.4-2.1-0.6c-1.2-0.4-2.4-0.9-3.5-1.5
			c-0.8-0.4-1.5-0.9-2.3-1.4c-0.5-0.4-0.8-0.6-0.8-0.6c-0.7-0.5-1.2-1.3-1.3-2.2c-0.2-1.2-0.4-2.5-0.5-3.7c-0.1,1.3-0.3,2.5-0.5,3.7
			c-0.1,0.9-0.6,1.6-1.3,2.2c0,0-0.3,0.2-0.8,0.6c-0.7,0.5-1.5,1-2.3,1.4c-1.1,0.6-2.3,1.1-3.5,1.5c-0.7,0.2-1.4,0.4-2.1,0.6
			c-0.7,0.2-1.5,0.3-2.2,0.4c-0.7,0.1-1.5,0.1-2.2,0.1c-0.7,0-1.5,0-2.2-0.2c-0.7-0.1-1.4-0.2-2-0.4l-0.9-0.2l-0.8-0.3
			c-0.5-0.2-1-0.4-1.5-0.6l-1.1-0.6l-0.9-0.6l0.8,0.7l1,0.8c0.4,0.3,0.9,0.5,1.4,0.8c0.3,0.1,0.5,0.3,0.8,0.5l0.9,0.4
			c0.7,0.3,1.4,0.5,2.1,0.7c0.7,0.2,1.5,0.4,2.3,0.5c0.8,0.1,1.6,0.2,2.4,0.2c0.8,0,1.6,0,2.4-0.1c0.8-0.1,1.6-0.2,2.3-0.4
			c1.4-0.3,2.7-0.7,4-1.2c0.9-0.3,1.9-0.8,2.7-1.2c0.5-0.2,0.8-0.4,1-0.5h0h0c0.1,0.1,0.5,0.3,1,0.5c0.9,0.5,1.8,0.9,2.7,1.2
			c1.3,0.5,2.7,0.9,4,1.2c0.7,0.2,1.5,0.3,2.3,0.4c0.8,0.1,1.6,0.1,2.4,0.1c0.8,0,1.6-0.1,2.4-0.2c0.8-0.1,1.5-0.2,2.3-0.5
			c0.7-0.2,1.4-0.4,2.1-0.7l0.9-0.4l0.8-0.5c0.5-0.3,1-0.5,1.4-0.8l1-0.8l0.9-0.7L130.8,187.6z"/>
		<path class="st0" d="M119.9,165.3c0,0-2-3.3-6.8-2.2c-4.8,1-5.6,1-5.6,1s-0.8,0-5.6-1c-4.8-1.1-6.8,2.2-6.8,2.2
			c-1.6,4.2,7.9,5.7,7.7,9c-0.2,3.3,4.7,4.8,4.7,4.8s4.9-1.5,4.7-4.8S121.5,169.5,119.9,165.3z"/>
		<path class="st0" d="M97.5,169.2c0,0-0.2-0.1-0.4-0.2c-0.3-0.2-0.7-0.3-1-0.5c-1.1-0.7-2-1.7-2.6-2.9c-0.3-0.8-0.5-1.7-0.5-2.6
			c0.1-0.9,0.2-1.7,0.3-2.6c0.3-1.7,0.5-3.5,0.8-5.3c0.5-3.3,0.8-6.6,0.9-10c0-1.1,0-2.2-0.2-3.3c-0.1-0.4-0.1-0.8-0.2-1.2
			c0,0,0.2,0.4,0.3,1.2c0.2,1.1,0.4,2.2,0.5,3.3c0.2,3.4,0.2,6.7,0,10.1c-0.1,1.8-0.2,3.7-0.3,5.4c-0.1,0.8-0.1,1.6-0.1,2.3
			c0.1,0.6,0.2,1.2,0.5,1.7c0.5,0.8,1.1,1.4,1.9,1.8c0.2,0.1,0.5,0.2,0.7,0.3l0.2,0.1L97.5,169.2z"/>
		<path class="st0" d="M117.5,169.2c0,0,0.2-0.1,0.4-0.2c0.3-0.2,0.7-0.3,1-0.5c1.1-0.7,2-1.7,2.6-2.9c0.3-0.8,0.5-1.7,0.5-2.6
			c-0.1-0.9-0.2-1.7-0.3-2.6c-0.2-1.7-0.5-3.5-0.8-5.3c-0.5-3.3-0.8-6.6-0.9-10c0-1.1,0-2.2,0.2-3.3c0.1-0.4,0.1-0.8,0.2-1.2
			c0,0-0.2,0.4-0.3,1.2c-0.2,1.1-0.4,2.2-0.5,3.3c-0.2,3.4-0.2,6.7,0,10.1c0.1,1.8,0.2,3.7,0.3,5.4c0.1,0.8,0.1,1.7,0.1,2.3
			c-0.1,1.5-1,2.9-2.4,3.5c-0.2,0.1-0.5,0.2-0.7,0.3l-0.2,0.1L117.5,169.2z"/>
		<path class="st0" d="M132.2,170.1c0,0,30.7-5.7,73.8,22.8C206,192.8,165.1,161.2,132.2,170.1z"/>
		<path class="st0" d="M132.2,171.5c0,0,29.4-0.3,64.8,33.1C197,204.6,164.1,168.6,132.2,171.5z"/>
		<path class="st0" d="M132.2,173c0,0,27,4.8,53.7,41.6C185.9,214.6,162,175.9,132.2,173z"/>
		<path class="st0" d="M82.8,170.1c0,0-30.7-5.7-73.8,22.8C9,192.8,50,161.2,82.8,170.1z"/>
		<path class="st0" d="M82.8,171.5c0,0-29.4-0.3-64.9,33.1C18,204.6,50.9,168.6,82.8,171.5z"/>
		<path class="st0" d="M82.8,173c0,0-27,4.8-53.7,41.6C29.1,214.6,53,175.9,82.8,173z"/>
	</g>
</g>
</svg>
