<?xml version="1.0" encoding="utf-8"?>
<!-- Generator: Adobe Illustrator 26.0.2, SVG Export Plug-In . SVG Version: 6.00 Build 0)  -->
<svg version="1.1" id="Layer_1" xmlns="http://www.w3.org/2000/svg" xmlns:xlink="http://www.w3.org/1999/xlink" x="0px" y="0px"
	 viewBox="0 0 216 216" style="enable-background:new 0 0 216 216;" xml:space="preserve">
<style type="text/css">
	.st0{fill:#DDDDDD;}
	.st1{fill:#FCFCFC;}
</style>
<g id="Layer_2_00000062175955674908932170000007655331273107298711_">
	<g id="Layer_1-2">
		<path class="st0" d="M54.8,121.3c0,0,2.2,6.2-3.9,8.8c0,0,3.3-0.1,4.9-1.3c0,0,1.2,8-6.2,9c0,0,9.5,1.6,7.4-12.3
			c0,0-1.1,2.3-2.2,2.5C55.9,125.9,55.9,123.5,54.8,121.3z"/>
		<path class="st0" d="M71.3,178.1c0,0,2.3,12.5,21.3,1.3c0,0-15.8,21.2,12.1,23.1l0,0c0,0-21.9,3-19.8-16.3
			C84.9,186.1,72,187.9,71.3,178.1z"/>
		<path class="st0" d="M96.7,132.4c0.5-4.1-3.6-5.3-3.6-5.3l0.5-2.6l-3.5,7.7l8.6,1.7L96.7,132.4z M93.2,129.3
			c-0.3,0-0.5-0.2-0.4-0.5c0-0.3,0.2-0.5,0.5-0.4c0.3,0,0.4,0.2,0.4,0.5C93.7,129.1,93.5,129.3,93.2,129.3
			C93.2,129.3,93.2,129.3,93.2,129.3L93.2,129.3z"/>
		<path class="st0" d="M46.1,117.3c-7.5,22,9.7,35.8,9.7,35.8c-9.6-6.9-11.8-9.1-11.8-9.1c-4.4,12.2,3.7,24.3,3.7,24.3
			c-18.3-23.7-6.9-57.4-4.7-60.5c3.1-4.3,16,13,16,13C50.7,113.1,47.3,113.9,46.1,117.3z"/>
		<path class="st0" d="M112.7,140.1c0.3-0.2,0.7-0.2,0.9,0.1c0,0,0,0,0,0c0.2,0.3,0,0.7-0.3,0.9c-0.3,0.2-0.7,0.2-0.9-0.1
			c0,0,0,0,0,0C112.2,140.7,112.3,140.3,112.7,140.1z"/>
		<path class="st0" d="M110.1,142.2c-0.3,0.2-0.7,0.2-0.9-0.1c0,0,0,0,0,0c-0.2-0.3,0-0.7,0.3-0.9c0.3-0.2,0.7-0.2,0.9,0.1
			c0,0,0,0,0,0C110.6,141.7,110.4,142.1,110.1,142.2z"/>
		<path class="st0" d="M106,143.2c-0.2-0.3,0-0.7,0.3-0.9c0.3-0.2,0.7-0.2,0.9,0.1c0,0,0,0,0,0c0.2,0.3,0,0.7-0.3,0.9
			C106.6,143.6,106.2,143.5,106,143.2C106,143.2,106,143.2,106,143.2z"/>
		<path class="st0" d="M114.7,146.2c-0.2,0.3-0.5,0.4-0.8,0.3c-0.2-0.2-0.3-0.6-0.1-0.8c0,0,0,0,0,0c0.2-0.3,0.5-0.4,0.8-0.3
			C114.9,145.6,114.9,146,114.7,146.2C114.7,146.2,114.7,146.2,114.7,146.2z"/>
		<path class="st0" d="M112.4,148.2c-0.2,0.3-0.5,0.4-0.8,0.3c-0.2-0.2-0.3-0.6-0.1-0.8c0,0,0,0,0,0c0.2-0.3,0.5-0.4,0.8-0.3
			C112.5,147.6,112.6,148,112.4,148.2C112.4,148.2,112.4,148.2,112.4,148.2z"/>
		<path class="st0" d="M110,150.2c-0.2,0.3-0.5,0.4-0.8,0.3c-0.2-0.2-0.3-0.6-0.1-0.8c0,0,0,0,0,0c0.2-0.3,0.5-0.4,0.8-0.3
			C110.2,149.6,110.2,149.9,110,150.2C110,150.2,110,150.2,110,150.2z"/>
		<path class="st0" d="M113.3,142.9c-0.2,0.2-0.2,0.6,0,0.9c0.3,0.2,0.7,0.1,0.9-0.2c0.2-0.2,0.2-0.6,0-0.8c0,0,0,0,0,0
			C113.8,142.5,113.4,142.6,113.3,142.9z"/>
		<path class="st0" d="M110,144.4c-0.3,0.3-0.3,0.7,0,1c0.3,0.2,0.8,0.1,1-0.2c0.3-0.3,0.3-0.7,0-0.9
			C110.6,144,110.2,144.1,110,144.4z"/>
		<path class="st0" d="M106.9,146.5c-0.3,0.3-0.3,0.8,0,1.1c0,0,0,0,0,0c0.4,0.2,0.8,0.1,1.1-0.2c0.3-0.3,0.3-0.8,0-1.1c0,0,0,0,0,0
			C107.6,146.1,107.1,146.2,106.9,146.5z"/>
		<path class="st0" d="M36.4,141c0,0-7.7-23.6-4.6-32.3c2-5.5,9.4-0.1,9.4-0.1s-4.3,0.2-5.5,5.1C33.8,121.4,36.4,141,36.4,141z"/>
		<path class="st0" d="M101.2,146.3c-0.7,0.1-1.6,0.3-2.5,0.5c-0.5,0.1-0.9,0.2-1.4,0.4c-0.5,0.1-1,0.3-1.5,0.5
			c-0.5,0.2-1,0.3-1.6,0.6c-0.5,0.2-1.1,0.4-1.6,0.6l-0.8,0.4l-0.8,0.4c-0.5,0.3-1.1,0.5-1.6,0.8c-1.1,0.6-2.2,1.2-3.3,1.9
			c-1.1,0.7-2.1,1.4-3.1,2.1s-2,1.5-2.9,2.2c-0.9,0.7-1.8,1.5-2.6,2.2c-0.8,0.7-1.6,1.4-2.3,2.1c-1.4,1.3-2.5,2.4-3.3,3.2
			s-1.2,1.3-1.2,1.3s0.4-0.5,1.1-1.4c0.7-0.9,1.7-2.1,3.1-3.4c1.3-1.4,3-2.9,4.8-4.5c0.9-0.8,1.9-1.5,2.9-2.3c1-0.7,2.1-1.5,3.2-2.1
			s2.2-1.3,3.3-1.9c0.6-0.3,1.1-0.6,1.7-0.8l0.8-0.4l0.8-0.3c0.6-0.2,1.1-0.4,1.7-0.6s1.1-0.4,1.6-0.5c0.5-0.1,1-0.3,1.5-0.4
			c0.5-0.1,1-0.2,1.4-0.3c0.5-0.1,0.9-0.2,1.3-0.2l1.2-0.1c0.8-0.1,1.4-0.1,2-0.1l1.7,0.1l-1.7,0.1
			C102.6,146.1,101.9,146.2,101.2,146.3z"/>
		<path class="st0" d="M87.9,168.8c0.5-1,1-2.1,1.6-3.1c0.6-1,1.2-2.1,1.9-3.1c0.7-1,1.4-2,2.1-2.9c0.4-0.5,0.7-0.9,1.1-1.4l0.6-0.7
			l0.6-0.6c0.4-0.4,0.8-0.8,1.2-1.2c0.4-0.4,0.8-0.7,1.2-1.1c0.4-0.3,0.8-0.7,1.2-0.9c0.4-0.3,0.8-0.6,1.1-0.8
			c0.4-0.3,0.7-0.5,1.1-0.7l1-0.6c0.6-0.4,1.2-0.6,1.7-0.9l1.5-0.7l-1.4,0.8c-0.4,0.3-1,0.6-1.6,1s-1.3,0.9-2,1.4
			c-0.4,0.3-0.7,0.6-1.1,0.9s-0.7,0.6-1.1,1c-0.4,0.4-0.8,0.7-1.1,1.1c-0.4,0.4-0.8,0.8-1.1,1.2l-0.6,0.6l-0.5,0.7
			c-0.4,0.4-0.7,0.9-1.1,1.4c-0.7,0.9-1.4,1.9-2.1,2.9c-0.6,1-1.3,2-1.9,3c-0.6,1-1.1,2-1.6,3c-0.5,1-1,1.9-1.4,2.9
			c-0.4,0.9-0.8,1.8-1.1,2.6c-0.7,1.6-1.2,3-1.5,4s-0.5,1.5-0.5,1.5s0.1-0.6,0.4-1.6c0.3-1,0.6-2.4,1.2-4.1
			C86.3,172.5,87.1,170.6,87.9,168.8z"/>
		<path class="st0" d="M74.9,176.1c0,0,0.3-0.6,0.8-1.7s1.3-2.5,2.4-4.2c1.2-2,2.5-3.9,3.9-5.7c0.8-1,1.6-2,2.5-3
			c0.9-1,1.8-2,2.8-2.9c1-1,2-1.9,3-2.7c0.5-0.4,1-0.8,1.6-1.2l0.8-0.6l0.8-0.5c0.5-0.4,1-0.7,1.6-1c0.5-0.3,1-0.6,1.6-0.9l0.8-0.4
			l0.7-0.4c0.5-0.2,0.9-0.5,1.4-0.7s0.9-0.4,1.3-0.5l1.2-0.4c0.8-0.2,1.5-0.4,2-0.6l1.8-0.4l-1.8,0.5c-0.5,0.2-1.2,0.4-2,0.7
			c-0.8,0.3-1.6,0.7-2.5,1.1c-0.5,0.2-0.9,0.5-1.4,0.7l-0.7,0.4l-0.7,0.4c-0.5,0.3-1,0.6-1.5,0.9s-1,0.7-1.5,1l-0.8,0.6l-0.8,0.6
			c-0.5,0.4-1,0.8-1.5,1.2c-1,0.8-2,1.8-2.9,2.7S85.9,161,85,162c-0.9,1-1.7,2-2.5,2.9c-0.8,1-1.5,1.9-2.2,2.8
			c-0.7,0.9-1.3,1.8-1.9,2.6c-1.1,1.7-2,3.1-2.6,4.1S74.9,176.1,74.9,176.1z"/>
		<path class="st0" d="M108,162l0.1-0.2l0.2-0.1l1.8-1.1c0.3-0.2,0.6-0.4,0.9-0.6c0.3-0.2,0.6-0.4,0.8-0.6l0.8-0.7l0.4-0.3
			c0.1-0.1,0.2-0.2,0.4-0.4l0.7-0.7l0.6-0.8c0.2-0.3,0.4-0.5,0.5-0.8l0.3-0.4c0.1-0.1,0.1-0.3,0.2-0.4c0.1-0.3,0.3-0.6,0.4-0.9
			c0.1-0.3,0.2-0.6,0.3-0.9c0.1-0.3,0.2-0.9,0.2-1c-3.5,2.9-7.6,4.9-12.1,5.8c0,0,18.8-9.1,12.7-22c-2.6,0.6-4-1.8-4-1.8
			c0.7,0.3,1.5,0.3,2.3,0c1.2-0.5,3.3-4.4-2.6-6.2c-0.1,0-4.4-1.1-5.7-1.4c-5.7-1.3-8.7-0.2-8.7-0.2s-13.2-13.7-38.5-6.2
			c0,0,0.2-0.1,0.5-0.2c0.6-0.3,1.3-0.6,1.9-0.9c0.8-0.3,1.6-0.6,2.5-0.9s1.7-0.5,2.5-0.7c0.8-0.2,1.7-0.4,2.5-0.6s1.7-0.3,2.6-0.4
			l1.3-0.2l1.3-0.1c0.9-0.1,1.7-0.1,2.6-0.1c0.9,0,1.7,0,2.6,0c0.9,0,1.7,0.1,2.6,0.2c0.4,0,0.9,0.1,1.3,0.2
			c0.4,0.1,0.9,0.1,1.3,0.2c0.8,0.2,1.7,0.3,2.5,0.5c0.8,0.2,1.7,0.5,2.5,0.7c0.4,0.1,0.8,0.3,1.2,0.4c0.4,0.1,0.8,0.3,1.2,0.5
			l1.2,0.5c0.4,0.2,0.8,0.4,1.2,0.5c0.8,0.4,1.5,0.8,2.3,1.2c0.8,0.4,1.3,0.8,2,1.2c2.1,0.6,4.2,1.1,6.3,1.6l3.2,0.8l1.6,0.4
			c0.5,0.1,1.1,0.2,1.5,0.3l0.4,0.1l0.4,0.1c0.3,0.1,0.6,0.1,0.9,0.2c0.6,0.2,1.2,0.4,1.7,0.6c0.3,0.1,0.6,0.3,0.8,0.4
			c0.3,0.1,0.5,0.3,0.8,0.5l0.4,0.3l0.4,0.3l0.4,0.3l0.3,0.4l0.3,0.4c0.1,0.1,0.2,0.3,0.3,0.4l0.3,0.4c0.1,0.1,0.1,0.3,0.2,0.4
			c0.3,0.6,0.5,1.2,0.6,1.8l0.1,0.9c0,0.3,0,0.6,0,0.9c0,0.2,0,0.3,0,0.5l-0.1,0.5l-0.1,0.4c1,1.9,4,8.4-1.2,14.4c0,0.1,0,0.1,0,0.2
			c0,0.2,0,0.4,0,0.6c0,0.2,0,0.4,0,0.6c0,0.4,0,0.8-0.1,1.2c-0.1,0.4-0.1,0.8-0.2,1.2c-0.1,0.4-0.2,0.8-0.4,1.1
			c-0.1,0.4-0.3,0.8-0.5,1.1c-0.1,0.2-0.2,0.4-0.3,0.5l-0.3,0.5c-0.2,0.3-0.4,0.7-0.7,1c-0.3,0.3-0.5,0.6-0.8,0.9l-0.8,0.8
			c-0.1,0.1-0.3,0.3-0.4,0.4l-0.4,0.4l-0.9,0.7c-0.3,0.2-0.6,0.4-0.9,0.7c-0.3,0.2-0.6,0.4-0.9,0.6l-1.8,1
			c-5.2,9.8-16.3,15.1-16.3,15.1C104.3,170,107.5,162.6,108,162z"/>
		<path class="st0" d="M33.9,139.4c0,0-19.7,42.6,34.4,62.9C68.3,202.3,10.5,187.8,33.9,139.4z"/>
		<path class="st1" d="M206.8,106.1c-3.6-6.6-37.2-9.5-48.2-18.7s-3.3-21.8-3.3-21.8s-7.6,0.6-10.7-6.6
			c-3.1-7.2-11.4-10.6-11.4-10.6c5.6,0.3,7-4.6,7-4.6c-1.4,0.6-3.1-2.4-3.1-2.4c5.3-2.7,2.3-8,2.3-8c-0.7,3.4-2.8,1.7-2.8,1.7
			c-2.4-4.6,4.8-5.3,4.8-5.3c15.5,3.5,19.6-6.6,19.6-6.6c-12.1,2.1-16.3-5.2-22.4-10.3c-6.1-5-17.9,3.5-17.9,3.5
			c-0.3-4.1-3.2-5.3-3.2-5.3c1.6,4-9.5,10.1-9.5,10.1c0.2-2.9-3.7-5.8-3.7-5.8c0.7,2-2.1,7.1-2.1,7.1c0.1-3.4-3.7-5.3-3.7-5.3
			c0.2,9-3.9,17.6-11.1,23.1c3.3-0.3,6.5-0.5,9.8-0.5c41.2,0,42.9,31,55.9,44.5c9.4,9.6,21.8,14.5,29,16.6c3,0.8,4.9,3.9,4.2,7
			c-3.9,17.4,12,16.4,12,16.4c-7.6,23.4-55.4,24-55.4,24c29.1,2.9,47.3-6.9,47.3-6.9c-11.7,13.6-62.8,10.4-62.8,10.4
			c72,9.8,69.7-17.8,69.7-17.8c4.1-2.1,7.3-12.3,7.3-12.3S210.3,112.7,206.8,106.1z M189.6,116.9c0.2,0.2,3.3,3.3,5.5,2.1
			c2.2-1.1,4.3-6.8,5.6-5.2C202,115.4,196.2,126.5,189.6,116.9z"/>
		<path class="st1" d="M126.9,88.2c-8.4,6.6-8.7,11-14.3,11.9c3,0.2,5.9-0.9,8.2-2.9c0,0,13,5.8,14.1-3.5c0,0,0.4-1.1,2.3,0.4
			C137.2,94.2,135.3,81.6,126.9,88.2z M130.2,89.8c0.5-0.1,1,0.1,1.1,0.6s-0.1,1-0.6,1.1c-0.5,0.1-1-0.1-1.1-0.6
			C129.4,90.5,129.7,89.9,130.2,89.8C130.2,89.8,130.2,89.8,130.2,89.8z M123.9,95.5c0.3,0.1,7.4,3.7,9.1-2.2
			C133,93.3,132.6,101.3,123.9,95.5z"/>
		<path class="st1" d="M122.9,77.2c0,0,7.7-9.5,13.3,2.5C136.2,79.8,132.6,64.6,122.9,77.2z"/>
		<path class="st1" d="M78.1,79.1c9.2-6.4,9-16.9,9-16.9c-1.2,2.7-5.5,1.5-5.5,1.5c7-8.2,3.2-20.3,3.1-20.7c1,4-4.4,8.5-4.4,8.5
			C85.1,29.7,63.5,2.2,63.5,2.2C56.3,19,49.5,56.2,31.5,75.8c-19.1,20.8-21.1,44.5-21.1,44.5c2-7.4,5.1-10.5,5.1-10.5
			C9.1,129,12.8,141,12.8,141c-1.6-58.4,50.4-37.4,50.4-37.4c18.5-8,9.7-12,9.7-12c12.3-6.7,10.3,5.1,10.2,5.5
			C92.5,83.1,78.1,79.1,78.1,79.1z M74.4,74.3c0,0-3.6-0.7-4.7-2.8c0,0-2,6,1.4,9.8c0,0-6.2-0.8-6.8-2.7c0,0-1.1,2.1,1.7,5.2
			c0,0-10.9-2.3-7-25.1c0.6,3.4,2.8,6.3,5.9,7.8c0,0,13.3-11.4,1.1-52.5C66,13.9,81,38.1,74.4,74.3L74.4,74.3z"/>
		<path class="st1" d="M125.1,156.6c0,0-6.2,13.9,8.7,21.1c0,0-10.2,1.3-12.9-4c0,0-8.7,20.4,12.8,24.5c0,0-24.8,2.7-15.6-31.4
			c0,0,3.1,5.5,5.7,6C123.8,172.8,119.6,165.7,125.1,156.6z"/>
		<path class="st1" d="M142.6,140.4c0,0-11.7,3.3-5.9,8.8C136.7,149.2,134.5,143.3,142.6,140.4z"/>
		<path class="st1" d="M177,123.9c0.2,0.5-0.1,1.1-0.6,1.3c-0.5,0.2-1.1-0.1-1.3-0.6c-0.2-0.5,0.1-1.1,0.6-1.3c0,0,0,0,0,0
			C176.3,123.2,176.8,123.4,177,123.9C177,123.9,177,123.9,177,123.9z"/>
		<path class="st1" d="M172.6,124.4c0.2,0.6-0.1,1.3-0.7,1.5s-1.3-0.1-1.5-0.7c-0.2-0.6,0.1-1.3,0.7-1.5c0,0,0,0,0,0
			C171.7,123.5,172.4,123.8,172.6,124.4C172.6,124.4,172.6,124.4,172.6,124.4z"/>
		<path class="st1" d="M180.4,123.8c0.1,0.5-0.2,0.9-0.6,1c-0.4,0.1-0.8-0.1-1-0.5c-0.1-0.5,0.2-0.9,0.6-1
			C179.9,123.2,180.3,123.4,180.4,123.8z"/>
		<path class="st1" d="M178.6,127.5c0.2,0.5,0,1-0.5,1.2c0,0,0,0,0,0c-0.5,0.2-1,0-1.3-0.4c0,0,0,0,0,0c-0.2-0.5,0-1,0.5-1.2
			c0,0,0,0,0,0C177.8,126.8,178.4,127,178.6,127.5C178.6,127.5,178.6,127.5,178.6,127.5z"/>
		<path class="st1" d="M174.3,128.4c0.3,0.6,0,1.3-0.6,1.5c0,0,0,0,0,0c-0.6,0.3-1.3,0-1.6-0.6c-0.3-0.6,0-1.3,0.6-1.5c0,0,0,0,0,0
			C173.3,127.6,174,127.8,174.3,128.4z"/>
		<path class="st1" d="M169.7,129.3c0.3,0.6,0,1.3-0.6,1.6c0,0,0,0,0,0c-0.6,0.3-1.4,0-1.7-0.6c-0.3-0.6,0-1.3,0.6-1.6c0,0,0,0,0,0
			C168.7,128.4,169.4,128.7,169.7,129.3z"/>
		<path class="st1" d="M182,127c0.2,0.4,0,0.9-0.4,1.1c0,0,0,0,0,0c-0.4,0.2-0.9,0-1.1-0.4c-0.2-0.4,0-0.9,0.4-1.1c0,0,0,0,0,0
			C181.3,126.4,181.8,126.6,182,127z"/>
		<path class="st1" d="M180.3,130.9c0.3,0.5,0.1,1-0.3,1.3c0,0,0,0,0,0c-0.5,0.3-1,0.1-1.3-0.3c-0.3-0.5-0.1-1,0.3-1.3c0,0,0,0,0,0
			C179.4,130.3,180,130.4,180.3,130.9z"/>
		<path class="st1" d="M176.1,132.3c0.3,0.5,0.1,1.2-0.4,1.6c0,0,0,0,0,0c-0.6,0.3-1.3,0.2-1.6-0.4c-0.3-0.5-0.1-1.2,0.4-1.6
			c0,0,0,0,0,0C175,131.6,175.7,131.7,176.1,132.3z"/>
		<path class="st1" d="M171.7,133.7c0.3,0.6,0.1,1.3-0.4,1.7c0,0,0,0,0,0c-0.6,0.4-1.4,0.2-1.7-0.4c-0.3-0.6-0.1-1.3,0.4-1.6
			c0,0,0,0,0,0C170.6,133,171.3,133.1,171.7,133.7z"/>
		<path class="st1" d="M183.7,130c0.2,0.4,0.1,0.9-0.3,1.1c0,0,0,0,0,0c-0.4,0.2-0.9,0.1-1.2-0.3c-0.2-0.4-0.1-0.9,0.3-1.1
			c0,0,0,0,0,0C182.9,129.5,183.4,129.6,183.7,130z"/>
		<path class="st1" d="M128.4,54.8c0,0,1.1,1.9,1.1,2.7c0,0-3.6-4.5-10.8-9.5c0,0,1.8,1.9,2.3,2.9c0,0-10-5.5-19.3-6.1
			c0,0,20.5,1.9,38.7,26.1C140.4,71,131.5,56.2,128.4,54.8z"/>
		<path class="st1" d="M9.4,133.5c0,0-18.9,108.7,166.5,67.5C175.9,201-9.1,257.5,9.4,133.5z"/>
	</g>
</g>
</svg>
