<svg xmlns="http://www.w3.org/2000/svg" viewBox="0 0 355.08 484.36"><defs><style>.cls-1{fill:#240bb5;}.cls-2{opacity:0.9;}.cls-3,.cls-4{isolation:isolate;font-size:458.45px;font-family:BebasNeuePro-Bold, Bebas Neue Pro;font-weight:700;}.cls-3{fill:#fff;}.cls-4{fill:none;stroke:#240bb5;stroke-miterlimit:10;stroke-width:3px;}</style></defs><g id="Layer_2" data-name="Layer 2"><g id="Layer_1-2" data-name="Layer 1"><g id="Layer_2-2" data-name="Layer 2"><g id="Layer_1-2-2" data-name="Layer 1-2"><g id="Layer_2-2-2" data-name="Layer 2-2"><g id="Layer_1-2-2-2" data-name="Layer 1-2-2"><path class="cls-1" d="M105.82,209.78c1.54.68,4.11.51,5.49,1.54.68,7.72,5,9.6,10.28,9.6S133.08,219,138.06,219a18.67,18.67,0,0,1,3.25.34c-5-4.29-4.28-14.06-9.6-17.49a11.81,11.81,0,0,0-6.12-1.89C118,200.17,111.31,207.2,105.82,209.78Zm9.09,1.22-.11-1.57-.52-.51c.86-.69,1.89-1.23,2.75-1.89a.17.17,0,0,1-.18.17l.35-.34.85-.51a2.29,2.29,0,0,1,1-.18c3.78,0,3.78,6,0,6a2.78,2.78,0,0,1-2.74-2.45v.61a7.79,7.79,0,0,0,3.94,6.69c-3.25-.18-5-1.38-5.31-6Zm18.17,1a26.46,26.46,0,0,0,1.23,3.43c-1.72.17-3.26.51-5,.68h-.17a7.66,7.66,0,0,0,1.89-9.6,23,23,0,0,1,2.06,5.49Z"/><path class="cls-1" d="M180.25,316.12c-8.92,2.74-21.09,5.83-33.95,4.63,8.74,11.66,24.35,21.09,44.09,15.92,8.75-2.23,16.47-9.95,19.74-16.63C196.54,321.09,189.85,318.35,180.25,316.12Z"/><path class="cls-1" d="M134.63,341.5c-.86,4.28-2.23,9.08-1.89,13.54-.17,2.07.51,4.13.51,6.19a76.59,76.59,0,0,1-12.33-23.34c-3.77,4.63-3.43,8.92-5.14,15.61C107,345.44,102.23,336.18,99.66,322c-1.55,25.89,11,37.73,22.29,50.77a64.34,64.34,0,0,1-.86-14.06c6.35,11.31,19.21,17.83,28.82,24.86-3.08-4.46-7.9-16.46-8.76-21.61,21.28,11.66,34,29,41.51,45.1C177.51,374.09,152.77,361.06,134.63,341.5Z"/><path class="cls-1" d="M83.18,259c7.2,4.8,12.52,13,16.81,19.6-5-19.77-21.94-27.49-21.62-52.34a82.9,82.9,0,0,1,12-17.66,50,50,0,0,0-12.87,10c0-16.81,10-23.67,16.82-33.61-4.8,1.37-9.8,4.45-13.56,6,3.44-7.35,12.7-8.75,17.67-14.41-4.28.35-9.6.52-13.2-.68,4.8-2.23,10.29-3.95,15.26-6-2.23-3.26-8.06-2.92-9.94-6.7,3.6-.69,8.57.17,12-.69-6.34-4.12-9.26-13.2-8.75-23.15,2.45,4.8,7.89,7.89,11.67,10.29-2.58-6-2.45-17,.85-21.95-.17,5.66,4.63,9.43,6.86,10.46-.34-6.69.17-12.18,4-15.26,4.28,2.74,7.71,6.12,12,8.74.68-14.23-3.77-28.46-12.86-34.82.68,2.92.34,5.67,1.22,8.76A36.61,36.61,0,0,0,104.79,95.2c1.37,2.92,2.74,5.85,4.29,8.76-6-7.21-18.18-9.8-24.87-15.1,1,1.37,2.45,2.57,2.75,4.8-8.91-5.32-20.59-16-27.45-25.4-2.92-4-9.95-18.69-16.47-12.69-5,4.63-9.6,19.6-12,27.61-1,3.43-2.91,6.68-3.6,9.6-6,24.87,7.55,46.48,5.66,70.66-1,12.87,3.77,21.28,8.06,29.16-6,.52-8.4,4.63-13.89,5.66,6.12,1.72,12.35,3.6,19.6,4.29-1.23,2.06-2.92,3.77-2.45,7.54,1.37.18,2.45-1.54,3.25-.85a31.61,31.61,0,0,0-1.22,10.29c3.09-4.29,7.2-7.89,14.06-8.41-5.14,5.32-11.15,16.29-6.69,26.42-.34-3.26.35-5.48,2.06-6.86,1.72,4.63,3.77,8.58,5.49,13.21-3.26,6.34-14.41,1.22-17.49-1.55,1.37,2.06,3.77,5,4.28,6.86a19.24,19.24,0,0,1-12.34-15.09C37.56,256.94,61.05,269.46,83.18,259Z"/><path class="cls-1" d="M79.57,315.26c-2.06-5.32-1.72-13-3.09-19.21-2.91,1-6.34,3.26-8.74,3.95a45.81,45.81,0,0,1,3.08-11.5c-2.74.34-4.28,1.88-6.68,2.74A79.42,79.42,0,0,0,71,272.55c-3.43.68-2.58,1.22-5.83,2.06.34-3.43.85-4.29,4.28-7.89C62.1,269.17,61.22,278,53,279.58a26.69,26.69,0,0,0,9.26-.34A21.35,21.35,0,0,1,52,295.16c3.43.51,5.66-1.72,8.4-.86-2.57,6.52-1,14.7,1.55,20.06.68-4.63,4.46-7.71,7.54-9.08-.17,12.34,7.72,16.63,11.68,24.86-.36-3.43-1.23-6.12-.87-10.29,3.78,5,8.41,10.63,13.55,13.21-5.48-6.69-7.71-17-9.6-27.27C82.33,308.74,81.13,312.17,79.57,315.26Z"/><path class="cls-1" d="M192.77,288.15c3.6,2.06,6.69,1.23,8.23-1.54,2.06-5,2.45-9.26,1.23-12.69a12.38,12.38,0,0,0-2.58-4.63c-9.6-7.72-27.43-6.69-39.09-1.54-1.72.68-2.58,2.45-3.43,3.77-2.58,4.29-2.45,10,2.45,16.8,2,2.06,4.8.52,5.83-.85,1.22-2.57-1.72-6.35.85-7.72,10.46.17,6.52,11.32,1.23,14.07,2.23,3.09,6.12,4.63,10.46,5.83.51-5.31,0-11.5.68-16.64.35,5.49,1.23,10.64,1.55,16.3,4.11,0,9.26-2.91,9.43-7.2-2.06-.53-4.12-1.56-4.63-3.61-1.89-5,2.45-13.55,8.23-9.26C194.66,280.78,190.2,286.1,192.77,288.15Z"/><path class="cls-1" d="M330,201.37c-.17-13.54-5.49-22-10-31.21,1,.86,2.45,3.26,3.94,2.75a124.77,124.77,0,0,0-22.46-35.17c1.89.86,4.46,2.57,6.69,2.06-6.35-3.26-11-8.4-16.81-12.35,1-.17,2.58.86,3.26,0-7.35-3.08-15.09-5.83-22.46-8.74,1.22-.17,3.26.51,3.26-.86-4.82-2.57-12.19-1-17.51-1.89a7.69,7.69,0,0,0,3.09-6,51.94,51.94,0,0,0-13.89,6.69c1-2.06,2.23-5.14,1.54-7.72-3.6,3.26-9.08,8.92-12.86,12-.17-2.57-.17-5.15-1.54-6.69a290.36,290.36,0,0,1-19.89,22.29c-15.45-7.71-28.65,4.63-41.17,4.29-7.89-.34-14.7-6.86-24.35-4.46,11.83,1.23,18.86,7.2,26.75,12.35a42,42,0,0,1,6-3.6c0,6.68,1.55,12.86,1.55,18.86-.17,9.1-6,15.79-6.69,23.5s4.11,15.78,6.34,21.27c7.35,19,23.28,31.39,33.63,44.25,9.43,10.63,16.63,44.43,5.14,55.23-11.32,8.74-30.19,2.57-41.85-1.89a54.66,54.66,0,0,1-9.26,3.77c-1.72.52-3.6,1-5.49,1.55-9.43,2.45-18.69,2.74-25.72-1.23-7.89-4.28-12.18-12.86-12.18-22.64a8.87,8.87,0,0,1,.17-2.06c-2.74,9.44-1,19.9,6.69,27.1,8.06,7.35,18.71,6.35,28.65,4.29a41.73,41.73,0,0,0,5-1,43.19,43.19,0,0,0,13-5.14c10.8,5.66,34.48,11.14,43.22,0,4.8,4.8,12.86,6.34,18.86,9.94.35-1.22-1.37-1.88-.68-2.74,12.34,5,28.46,8.74,44.77,6.86-2.75-3.95-3.78-9.43-6.86-12.86,6.12,3.94,12.34,8.06,15.92,14.7,1.23-10-2.74-23.28-7.2-31.85,2.57,1.37,5.66,5.32,7.2,5.66.17-6.52-3.26-11-5.14-14.42,2.45,1.55,5,6.13,6.85,6.36-3.42-7.35-9.08-12.53-9.94-22.48,2.57,2.23,8.57,2.58,12,3.09-3.6-2.45-7.54-6-8.74-9.95,3.26,0,7.89,1.55,9.94-.68-4.11-.86-6.51-3.26-8.74-6,4.46.17,8.57,0,11.66-1.23-10.29-3.08-12.35-14.4-15.09-24.86,2.91,1.71,4.8,4.46,7.71,6-.85-7-3.42-12.19-6-17.5,3.78,1.22,6.86,6.34,9.26,6.86-1.54-6.52-2.23-14.24-5.48-19.21,2.74,1.54,4.45,5.66,6.85,6.69-8.74-31.73-16.63-66-55.11-67.37,9.43-3.94,21.26,1.37,28.47,5,16.47,11.15,22.12,32.43,31,51.8,3.09,6.86,12.86,15.26,21.27,14.7,3.08-3.6,1.37-11.83.85-17.15C329.29,200.17,329.29,201.2,330,201.37ZM208.2,213.55c1.39-3.26-.17-9.6,1.9-12.69a7.36,7.36,0,0,1,6.69-3.43,9.26,9.26,0,0,0-5.49,5,2.83,2.83,0,0,1,1.72-.51c3.77,0,3.77,6,0,6a2.43,2.43,0,0,1-2.23-1.23,8.85,8.85,0,0,0,3.08,5.66A4.44,4.44,0,0,0,208.2,213.55Zm11.85,1a3.92,3.92,0,0,1-1.89-.52c.52,0,1,.17,1.37.17a8.92,8.92,0,0,0,8.92-8.74,8.08,8.08,0,0,0-1.72-5.15c2.58,1.55,5.15,3.09,7.55,4.81-6,2.45-6.69,9.94-14.23,9.43Zm39.28,22.82s2.06,11.66.85,19c-1.37,9.43-13.2,18.69-14.69,28.64-2.45-10.64,9.09-21.1,9.6-30.18,1.37-21.44-6.52-28.31-13.89-38.26,4.8,2.75,9.8,8.06,14.7,11.68-.69-32.94-9.6-58-24.35-77C246.64,168.28,266.87,201.72,259.33,237.4Z"/></g></g><g class="cls-2"><text class="cls-3" transform="translate(1.5 391.18) scale(1.92 1)">O</text><text class="cls-4" transform="translate(1.5 391.18) scale(1.92 1)">O</text></g></g></g></g></g></svg>