<?xml version="1.0" encoding="utf-8"?>
<!-- Generator: Adobe Illustrator 26.0.2, SVG Export Plug-In . SVG Version: 6.00 Build 0)  -->
<svg version="1.1" id="Layer_1" xmlns="http://www.w3.org/2000/svg" xmlns:xlink="http://www.w3.org/1999/xlink" x="0px" y="0px"
	 viewBox="0 0 288 288" style="enable-background:new 0 0 288 288;" xml:space="preserve">
<style type="text/css">
	.st0{fill:#240BB5;}
</style>
<g id="Layer_2_00000103980572524157228460000004349183305865529243_">
	<g id="Layer_1-2">
		<path class="st0" d="M85.2,127c1.3,0.6,3.4,0.4,4.5,1.3c0.6,6.3,4.1,7.8,8.4,7.8s9.4-1.5,13.4-1.5c1,0,1.8,0.1,2.7,0.3
			c-4.1-3.5-3.5-11.5-7.8-14.3c-1.5-1-3.4-1.5-5-1.5C95.1,119.2,89.6,124.9,85.2,127z M92.6,128l-0.1-1.3l-0.4-0.4
			c0.7-0.6,1.5-1,2.2-1.5c0,0,0,0.1-0.1,0.1c0.1-0.1,0.1-0.1,0.3-0.3l0.7-0.4c0.3-0.1,0.6-0.1,0.8-0.1c3.1,0,3.1,4.9,0,4.9
			c-1.1,0-2.1-0.8-2.2-2c0,0.1,0,0.3,0,0.4c0,2.2,1.3,4.3,3.2,5.5C94.3,132.8,92.9,131.8,92.6,128L92.6,128z M107.4,128.9
			c0.3,0.8,0.6,2,1,2.8c-1.4,0.1-2.7,0.4-4.1,0.6h-0.1c2.4-2,2.9-5.2,1.5-7.8C106.5,125.6,107,127.2,107.4,128.9L107.4,128.9z"/>
		<path class="st0" d="M145.9,213.9c-7.3,2.2-17.2,4.8-27.7,3.8c7.1,9.5,19.9,17.2,36,13c7.1-1.8,13.4-8.1,16.1-13.6
			C159.2,217.9,153.8,215.7,145.9,213.9z"/>
		<path class="st0" d="M108.7,234.6c-0.7,3.5-1.8,7.4-1.5,11.1c-0.1,1.7,0.4,3.4,0.4,5c-4.5-5.7-7.8-12.2-10.1-19
			c-3.1,3.8-2.8,7.3-4.2,12.7c-7.1-6.6-11.1-14.1-13.2-25.8c-1.3,21.1,9,30.8,18.2,41.4c-0.6-3.4-1-8.1-0.7-11.5
			c5.2,9.2,15.7,14.6,23.5,20.3c-2.5-3.6-6.4-13.4-7.1-17.6c17.4,9.5,27.7,23.7,33.9,36.8C143.7,261.2,123.5,250.5,108.7,234.6z"/>
		<path class="st0" d="M66.7,167.2c5.9,3.9,10.2,10.6,13.7,16c-4.1-16.1-17.9-22.4-17.6-42.7c2.7-5.2,5.9-10.1,9.8-14.4
			c-4.2,2.1-7.4,5-10.5,8.1c0-13.7,8.1-19.3,13.7-27.4c-3.9,1.1-8,3.6-11.1,4.9c2.8-6,10.4-7.1,14.4-11.8c-3.5,0.3-7.8,0.4-10.8-0.6
			c3.9-1.8,8.4-3.2,12.5-4.9C79,91.8,74.2,92,72.7,89c2.9-0.6,7,0.1,9.8-0.6c-5.2-3.4-7.6-10.8-7.1-18.9c2,3.9,6.4,6.4,9.5,8.4
			C82.8,73,82.9,64,85.6,60c-0.1,4.6,3.8,7.7,5.6,8.5c-0.3-5.5,0.1-9.9,3.2-12.5c3.5,2.2,6.3,5,9.8,7.1c0.6-11.6-3.1-23.2-10.5-28.4
			c0.6,2.4,0.3,4.6,1,7.1c-2.5-3.5-6.7-6.6-10.4-8.4c1.1,2.4,2.2,4.8,3.5,7.1c-4.9-5.9-14.8-8-20.3-12.3c0.8,1.1,2,2.1,2.2,3.9
			c-7.3-4.3-16.8-13-22.4-20.7C45,8.3,39.2-3.7,33.9,1.2c-4.1,3.8-7.8,16-9.8,22.5c-0.8,2.8-2.4,5.5-2.9,7.8
			c-4.9,20.3,6.2,37.9,4.6,57.7c-0.8,10.5,3.1,17.4,6.6,23.8c-4.9,0.4-6.9,3.8-11.3,4.6c5,1.4,10.1,2.9,16,3.5c-1,1.7-2.4,3.1-2,6.2
			c1.1,0.1,2-1.3,2.7-0.7c-0.8,2.4-1,5.2-1,8.4c2.5-3.5,5.9-6.4,11.5-6.9c-4.2,4.3-9.1,13.3-5.5,21.6c-0.3-2.7,0.3-4.5,1.7-5.6
			c1.4,3.8,3.1,7,4.5,10.8c-2.7,5.2-11.8,1-14.3-1.3c1.1,1.7,3.1,4.1,3.5,5.6c-5.5-2-9.1-6.7-10.1-12.3
			C29.4,165.5,48.6,175.8,66.7,167.2z"/>
		<path class="st0" d="M63.7,213.2c-1.7-4.3-1.4-10.6-2.5-15.7c-2.4,0.8-5.2,2.7-7.1,3.2c0.4-3.2,1.3-6.3,2.5-9.4
			c-2.2,0.3-3.5,1.5-5.5,2.2c2.5-4.8,4.3-9.9,5.6-15.3c-2.8,0.6-2.1,1-4.8,1.7c0.3-2.8,0.7-3.5,3.5-6.4c-6,2-6.7,9.2-13.4,10.5
			c2.5,0.4,6,0.1,7.6-0.3c-0.8,6.3-4.1,10.2-8.4,13c2.8,0.4,4.6-1.4,6.9-0.7c-2.1,5.3-0.8,12,1.3,16.4c0.6-3.8,3.6-6.3,6.2-7.4
			c-0.1,10.1,6.3,13.6,9.5,20.3c-0.3-2.8-1-5-0.7-8.4c3.1,4.1,6.9,8.7,11.1,10.8c-4.5-5.5-6.3-13.9-7.8-22.3
			C66,207.8,65,210.6,63.7,213.2z"/>
		<path class="st0" d="M156.2,191c2.9,1.7,5.5,1,6.7-1.3c1.7-4.1,2-7.6,1-10.4c-0.4-1.4-1.1-2.7-2.1-3.8c-7.8-6.3-22.4-5.5-31.9-1.3
			c-1.4,0.6-2.1,2-2.8,3.1c-2.1,3.5-2,8.1,2,13.7c1.7,1.7,3.9,0.4,4.8-0.7c1-2.1-1.4-5.2,0.7-6.3c8.5,0.1,5.3,9.2,1,11.5
			c1.8,2.5,5,3.8,8.5,4.8c0.4-4.3,0-9.4,0.6-13.6c0.3,4.5,1,8.7,1.3,13.3c3.4,0,7.6-2.4,7.7-5.9c-1.7-0.4-3.4-1.3-3.8-2.9
			c-1.5-4.1,2-11.1,6.7-7.6C157.7,185,154.1,189.4,156.2,191z"/>
		<path class="st0" d="M268.2,120.2c-0.1-11.1-4.5-17.9-8.1-25.5c0.8,0.7,2,2.7,3.2,2.2c-4.5-11.1-11.5-21-18.3-28.7
			c1.5,0.7,3.6,2.1,5.5,1.7c-5.2-2.7-9-6.9-13.7-10.1c0.8-0.1,2.1,0.7,2.7,0c-6-2.5-12.3-4.8-18.3-7.1c1-0.1,2.7,0.4,2.7-0.7
			c-3.9-2.1-9.9-0.8-14.3-1.5c1.4-1,2.7-3.2,2.5-4.9c-4.1,1.3-7.8,3.1-11.3,5.5c0.8-1.7,1.8-4.2,1.3-6.3c-2.9,2.7-7.4,7.3-10.5,9.8
			c-0.1-2.1-0.1-4.2-1.3-5.5c-5,6.3-10.5,12.3-16.2,18.2c-12.6-6.3-23.4,3.8-33.6,3.5c-6.4-0.3-12-5.6-19.9-3.6
			c9.7,1,15.4,5.9,21.8,10.1c1.5-1.1,3.2-2.1,4.9-2.9c0,5.5,1.3,10.5,1.3,15.4c-0.1,7.4-4.9,12.9-5.5,19.2
			c-0.4,6.4,3.4,12.9,5.2,17.4c6,15.5,19,25.6,27.4,36.1c7.7,8.7,13.6,36.3,4.2,45.1c-9.2,7.1-24.6,2.1-34.2-1.5
			c-2.4,1.3-4.9,2.2-7.6,3.1c-1.4,0.4-2.9,0.8-4.5,1.3c-7.7,2-15.3,2.2-21-1c-6.4-3.5-9.9-10.5-9.9-18.5c0-0.6,0-1.1,0.1-1.7
			c-2.2,7.7-0.8,16.2,5.5,22.1c6.6,6,15.3,5.2,23.4,3.5c1.4-0.3,2.8-0.4,4.1-0.8c3.8-0.8,7.4-2.2,10.6-4.2c8.8,4.6,28.1,9.1,35.3,0
			c3.9,3.9,10.5,5.2,15.4,8.1c0.3-1-1.1-1.5-0.6-2.2c10.1,4.1,23.2,7.1,36.5,5.6c-2.2-3.2-3.1-7.7-5.6-10.5c5,3.2,10.1,6.6,13,12
			c1-8.1-2.2-19-5.9-26c2.1,1.1,4.6,4.3,5.9,4.6c0.1-5.3-2.7-9-4.2-11.8c2,1.3,4.1,5,5.6,5.2c-2.8-6-7.4-10.2-8.1-18.3
			c2.1,1.8,7,2.1,9.8,2.5c-2.9-2-6.2-4.9-7.1-8.1c2.7,0,6.4,1.3,8.1-0.6c-3.4-0.7-5.3-2.7-7.1-4.9c3.6,0.1,7,0,9.5-1
			c-8.4-2.5-10.1-11.8-12.3-20.3c2.4,1.4,3.9,3.6,6.3,4.9c-0.7-5.7-2.8-9.9-4.9-14.3c3.1,1,5.6,5.2,7.6,5.6
			c-1.3-5.3-1.8-11.6-4.5-15.7c2.2,1.3,3.6,4.6,5.6,5.5c-7.1-25.9-13.6-53.9-44.9-55c7.7-3.2,17.4,1.1,23.2,4.1
			c13.4,9.1,18.1,26.5,25.3,42.3c2.5,5.6,10.5,12.5,17.4,12c2.5-2.9,1.1-9.7,0.7-14C267.6,119.2,267.6,120,268.2,120.2z
			 M168.8,130.1c1.1-2.7-0.1-7.8,1.5-10.4c1.1-1.8,3.2-2.9,5.5-2.8c-2,0.7-3.6,2.1-4.5,4.1c0.4-0.3,0.8-0.4,1.4-0.4
			c3.1,0,3.1,4.9,0,4.9c-0.7,0-1.4-0.3-1.8-1c0.3,1.8,1.1,3.5,2.5,4.6C171.8,128.4,170.3,128.4,168.8,130.1z M178.4,131
			c-0.6,0-1-0.1-1.5-0.4c0.4,0,0.8,0.1,1.1,0.1c3.9,0,7.1-3.1,7.3-7.1c0-1.5-0.4-2.9-1.4-4.2c2.1,1.3,4.2,2.5,6.2,3.9
			C185.1,125.2,184.6,131.4,178.4,131L178.4,131z M210.5,149.6c0,0,1.7,9.5,0.7,15.5c-1.1,7.7-10.8,15.3-12,23.4
			c-2-8.7,7.4-17.2,7.8-24.6c1.1-17.5-5.3-23.1-11.3-31.2c3.9,2.2,8,6.6,12,9.5c-0.6-26.9-7.8-47.3-19.9-62.9
			C200.1,93.2,216.7,120.5,210.5,149.6L210.5,149.6z"/>
	</g>
</g>
</svg>
