<svg xmlns="http://www.w3.org/2000/svg" viewBox="0 0 546.61 633.84"><defs><style>.cls-1{opacity:0.5;}.cls-2{fill:#7f62aa;}</style></defs><g id="Layer_2" data-name="Layer 2"><g id="Layer_1-2" data-name="Layer 1"><g class="cls-1"><path class="cls-2" d="M143.78,279.61c2.84,1.29,7.43.84,9.71,2.7,1.11,13.75,8.81,17.16,18.45,17.16,9.46,0,20.79-3.29,29.57-3.29a22,22,0,0,1,6,.71c-8.89-7.78-7.61-25.41-17.28-31.32A21.07,21.07,0,0,0,179,262.25C165.68,262.25,153.78,275.07,143.78,279.61Zm16.44,2.15-.23-2.87-1-.79c1.63-1.12,3.27-2.24,4.92-3.29-.06.12-.13.23-.18.35a5.27,5.27,0,0,1,.57-.59l1.42-.87a5.45,5.45,0,0,1,2-.39c6.89,0,6.89,10.69,0,10.69a4.93,4.93,0,0,1-5.08-4.33c0,.31-.05.61-.05.92a13.78,13.78,0,0,0,7.19,12.06C164,292.28,160.89,290.06,160.22,281.76Zm32.8,1.76c.66,2,1.36,4.18,2.18,6.3-3,.33-6,.82-9,1.3l-.35.05A13.66,13.66,0,0,0,189.16,274C190.69,276.42,191.84,279.89,193,283.52Z"/><path class="cls-2" d="M277.62,470.5c-16.07,4.81-37.79,10.53-61.09,8.28,15.8,21.05,43.85,37.85,79.34,28.62,15.79-4.12,29.69-17.76,35.39-29.82C307,479.45,294.76,474.61,277.62,470.5Z"/><path class="cls-2" d="M195.61,516.12c-1.46,7.56-4,16.36-3.5,24.36-.33,3.73.88,7.34.95,11.11a139.68,139.68,0,0,1-22.28-41.94c-6.63,8.31-6.24,16.17-9.38,28-15.69-14.37-24.29-31.21-29-56.59-2.85,46.59,19.8,67.67,40,91.25-1.25-7.39-2.15-18-1.61-25.37,11.54,20.31,34.56,32,51.83,44.82-5.46-8.05-14.18-29.59-15.78-38.87,38.16,20.81,60.94,52,74.64,81C272.59,574.87,228.2,551.4,195.61,516.12Z"/><path class="cls-2" d="M103.28,368.17c12.88,8.53,22.4,23.31,30.23,35.09-8.88-35.4-39.39-49.16-38.88-93.95a144.32,144.32,0,0,1,21.6-31.86c-9.2,4.47-16.4,11-23.22,17.82.07-30.17,17.82-42.67,30.24-60.48-8.75,2.58-17.51,8-24.3,10.8,6.1-13.16,22.79-15.74,31.86-25.92-7.79.71-17.26,1-23.76-1.08,8.69-4.1,18.37-7.2,27.54-10.8-4-5.92-14.61-5.2-17.81-11.88,6.32-1.24,15.39.27,21.59-1.08-11.34-7.38-16.66-23.65-15.66-41.58,4.24,8.54,14.23,14.21,21.07,18.36-4.6-10.73-4.42-30.49,1.61-39.42-.45,10.19,8.2,17,12.42,18.9-.76-11.87.38-21.9,7-27.54,7.59,4.83,13.87,11,21.6,15.66,1.16-25.5-6.66-51.27-23.22-62.64,1.14,5.36.54,10.18,2.16,15.66-5.65-7.68-14.89-14.63-22.68-18.36,2.54,5.2,4.93,10.55,7.56,15.66-10.66-12.92-32.59-17.45-44.82-27,2,2.52,4.42,4.58,4.86,8.64C94,61.44,73.08,42.42,60.61,25.27,55.47,18.19,42.73-8.29,30.91,2.59c-9.09,8.36-17.12,35-21.6,49.68-1.85,6.09-5.18,12-6.48,17.28-10.93,44.72,13.55,83.52,10.26,126.9-1.74,23,6.77,38.15,14.58,52.38-10.84.85-15.17,8.22-24.84,10.26,11,3.23,22.13,6.32,35.1,7.56-2.26,3.67-5.23,6.65-4.32,13.5,2.48.3,4.42-2.75,5.94-1.62-1.7,5.14-2.22,11.45-2.16,18.36,5.66-7.84,13-14.05,25.39-15.12-9.37,9.57-19.92,29.13-11.89,47.51-.58-6,.77-10,3.78-12.41,3,8.2,6.91,15.41,9.72,23.75-6,11.33-25.9,2.05-31.32-2.7,2.58,3.73,6.66,8.82,7.56,12.42-12-4.36-20-14.9-22.14-27C21.35,364.19,63.55,386.87,103.28,368.17Z"/><path class="cls-2" d="M96.79,469.15c-3.62-9.7-3.2-23.45-5.4-34.57-5.21,2-11.42,5.86-15.66,7a86.26,86.26,0,0,1,5.4-20.52c-4.91.68-7.78,3.39-11.88,4.87a142.54,142.54,0,0,0,12.42-33.48c-6.27,1.11-4.5,2.27-10.37,3.79C72,390,72.86,388.61,79,382.21c-13.33,4.3-14.84,20.43-29.69,23.21,5.67,1,13.2.16,16.73-.53-1.9,13.75-8.84,22.47-18.36,28.61,6.14.91,10.13-3.18,15.13-1.61-4.5,11.58-1.89,26.45,2.69,36.17,1.09-8.45,8-13.92,13.5-16.19C78.79,474,93,481.8,100,496.69c-.6-6.06-2.19-11.13-1.62-18.37,6.84,8.83,15.08,19.13,24.3,23.76-10-12.15-13.85-30.42-17.28-49.13C101.73,457.52,99.62,463.69,96.79,469.15Z"/><path class="cls-2" d="M300.25,420.47c6.51,3.81,12,2.09,14.89-2.76,3.85-9,4.26-16.54,2.24-22.7a23.55,23.55,0,0,0-4.72-8.2c-17.37-13.91-49.4-11.9-70.29-2.9-2.94,1.27-4.59,4.26-6.12,6.82-4.61,7.66-4.28,17.82,4.46,30.29,3.74,3.55,8.52,1,10.47-1.65,2.28-4.68-3-11.47,1.65-13.79,18.85.3,11.81,20.49,2.21,25.36,4.11,5.63,11.07,8.42,18.75,10.48.87-9.42,0-20.62,1.1-29.77.66,10,2.08,19.24,2.76,29.22,7.39-.06,16.63-5.26,17.05-12.85-3.81-1-7.32-2.83-8.35-6.48-3.42-8.88,4.4-24.41,14.67-16.79C303.47,407.11,295.48,416.83,300.25,420.47Z"/><path class="cls-2" d="M546.61,264.49c-.35-24.31-9.73-39.59-17.82-56.16,2,1.6,4.24,5.83,7,4.86-9.84-24.36-25.18-46.11-40.5-63.18,3.32,1.54,7.89,4.7,11.88,3.78-11.49-6-19.84-15.08-30.24-22.14,2-.31,4.48,1.6,5.94,0-13.32-5.4-27.05-10.39-40.5-15.66,2.28-.25,5.87.82,5.94-1.62-8.52-4.58-21.87-1.88-31.32-3.24,2.93-2.12,6-7,5.41-10.8a96.37,96.37,0,0,0-24.85,11.88c1.71-3.58,4-9.23,2.7-14-6.42,6-16.38,16-23.22,21.6-.21-4.65-.41-9.31-2.7-11.88-11.18,14-23.25,27.14-35.64,40-27.77-14-51.42,8.41-74,7.56-14.28-.54-26.38-12.35-43.74-8.1,21.26,2.14,34,12.83,48.06,22.14a68.2,68.2,0,0,1,10.8-6.48c-.09,11.87,2.9,23.05,2.7,34-.29,16.21-10.92,28.24-11.88,42.12-1,14.18,7.45,28.28,11.34,38.34,13.21,34.05,42,56.31,60.48,79.37,17,19.13,29.91,79.88,9.18,99.37-20.48,15.73-54.27,4.7-75.06-3.24A104.58,104.58,0,0,1,260,459.81c-3.14,1-6.41,1.91-9.76,2.7-17,4.35-33.68,5.05-46.17-2.22-14.11-7.75-21.76-23.08-21.76-40.74,0-1.22.09-2.41.18-3.61-4.81,17.07-1.92,35.85,11.91,48.6,14.35,13.22,33.47,11.53,51.37,7.62,3.07-.47,6.1-1.06,9-1.76a79.86,79.86,0,0,0,23.46-9.35c19.27,10.26,61.95,19.9,77.76,0,8.7,8.58,23.18,11.38,34,17.82.57-2.22-2.54-3.54-1.08-4.87,22.14,8.94,51,15.72,80.46,12.42-4.91-7-6.89-16.86-12.42-23.21,11.14,7.22,22.33,14.39,28.62,26.46,2.12-17.83-4.9-41.9-13-57.25,4.71,2.35,10.14,9.63,13,10.27.27-11.61-6-19.6-9.17-25.93,4.37,2.86,8.92,11.2,12.41,11.34-6.26-13.17-16.47-22.4-17.82-40.5,4.7,3.95,15.49,4.68,21.6,5.4-6.45-4.35-13.7-10.77-15.66-17.81,6,0,14.29,2.7,17.82-1.09-7.25-1.56-11.84-5.79-15.66-10.79,7.95.2,15.51,0,21.06-2.16-18.46-5.48-22.14-25.74-27-44.82,5.33,2.95,8.52,8,14,10.79-1.48-12.55-6.16-21.91-10.79-31.31,6.71,2.3,12.26,11.46,16.73,12.42-2.9-11.86-4-25.54-9.72-34.56,4.9,2.87,8.13,10.19,12.42,11.88C480,228.43,465.92,166.87,397,164.59c17.09-7,38.18,2.37,51.3,8.86C478,193.33,488.16,231.8,504,266.65c5.62,12.39,23,27.37,38.34,26.46,5.55-6.58,2.56-21.38,1.63-30.78C545.43,262.43,545.39,264.09,546.61,264.49ZM328,286.35c2.53-6-.42-17.14,3.35-22.94a13.41,13.41,0,0,1,12-6.28,15.83,15.83,0,0,0-9.73,8.94,5.06,5.06,0,0,1,3.08-.95c6.9,0,6.9,10.68,0,10.68a4.83,4.83,0,0,1-4.15-2.07,15.51,15.51,0,0,0,5.61,10.2C334.77,282.68,331.34,282.51,328,286.35Zm21.08,1.8a11.42,11.42,0,0,1-3.24-.78,15.42,15.42,0,0,0,2.56.22A15.78,15.78,0,0,0,364.3,272a15.42,15.42,0,0,0-3.06-9.2,127.47,127.47,0,0,1,13.69,8.75C364,275.5,362.7,289,349.06,288.15Zm70.59,41.11s3.64,21,1.68,34.05c-2.55,17-23.69,33.49-26.43,51.45-4.22-19.11,16.24-38,17.25-54.16,2.43-38.65-11.64-50.89-24.84-68.57,8.63,5.05,17.41,14.63,26.46,21.05-1.36-59.29-17.28-104-43.74-138.23C397,205,433.15,265.14,419.65,329.26Z"/></g></g></g></svg>