<?xml version="1.0" encoding="utf-8"?>
<!-- Generator: Adobe Illustrator 26.0.2, SVG Export Plug-In . SVG Version: 6.00 Build 0)  -->
<svg version="1.1" id="Layer_1" xmlns="http://www.w3.org/2000/svg" xmlns:xlink="http://www.w3.org/1999/xlink" x="0px" y="0px"
	 viewBox="0 0 216 216" style="enable-background:new 0 0 216 216;" xml:space="preserve">
<style type="text/css">
	.st0{fill:#F9F9F9;}
</style>
<g id="Layer_2_00000103980572524157228460000004349183305865529243_">
	<g id="Layer_1-2">
		<path class="st0" d="M66,95.9c0.9,0.4,2.4,0.3,3.2,0.9c0.4,4.5,2.9,5.6,6,5.6c3.1,0,6.7-1.1,9.6-1.1c0.7,0,1.3,0.1,1.9,0.2
			c-2.9-2.5-2.5-8.2-5.6-10.2c-1.1-0.7-2.4-1.1-3.6-1.1C73.1,90.3,69.2,94.4,66,95.9z M71.3,96.6l-0.1-0.9l-0.3-0.3
			c0.5-0.4,1.1-0.7,1.6-1.1c0,0,0,0.1-0.1,0.1c0.1-0.1,0.1-0.1,0.2-0.2l0.5-0.3c0.2-0.1,0.4-0.1,0.6-0.1c2.2,0,2.2,3.5,0,3.5
			c-0.8,0-1.5-0.6-1.6-1.4c0,0.1,0,0.2,0,0.3c0,1.6,0.9,3.1,2.3,3.9C72.5,100,71.5,99.3,71.3,96.6L71.3,96.6z M81.9,97.2
			c0.2,0.6,0.4,1.4,0.7,2c-1,0.1-1.9,0.3-2.9,0.4l-0.1,0c1.7-1.4,2.1-3.7,1.1-5.6C81.2,94.9,81.6,96,81.9,97.2L81.9,97.2z"/>
		<path class="st0" d="M109.4,157.9c-5.2,1.6-12.3,3.4-19.8,2.7c5.1,6.8,14.2,12.3,25.7,9.3c5.1-1.3,9.6-5.8,11.5-9.7
			C118.9,160.8,115,159.2,109.4,157.9z"/>
		<path class="st0" d="M82.8,172.7c-0.5,2.5-1.3,5.3-1.1,7.9c-0.1,1.2,0.3,2.4,0.3,3.6c-3.2-4.1-5.6-8.7-7.2-13.6
			c-2.2,2.7-2,5.2-3,9.1c-5.1-4.7-7.9-10.1-9.4-18.4c-0.9,15.1,6.4,22,13,29.6c-0.4-2.4-0.7-5.8-0.5-8.2
			c3.7,6.6,11.2,10.4,16.8,14.5c-1.8-2.6-4.6-9.6-5.1-12.6c12.4,6.8,19.8,16.9,24.2,26.3C107.8,191.7,93.4,184.1,82.8,172.7z"/>
		<path class="st0" d="M52.8,124.6c4.2,2.8,7.3,7.6,9.8,11.4c-2.9-11.5-12.8-16-12.6-30.5c1.9-3.7,4.2-7.2,7-10.3
			c-3,1.5-5.3,3.6-7.5,5.8c0-9.8,5.8-13.8,9.8-19.6c-2.8,0.8-5.7,2.6-7.9,3.5c2-4.3,7.4-5.1,10.3-8.4c-2.5,0.2-5.6,0.3-7.7-0.4
			c2.8-1.3,6-2.3,8.9-3.5c-1.3-1.9-4.7-1.7-5.8-3.9c2.1-0.4,5,0.1,7-0.4c-3.7-2.4-5.4-7.7-5.1-13.5c1.4,2.8,4.6,4.6,6.8,6
			c-1.5-3.5-1.4-9.9,0.5-12.8c-0.1,3.3,2.7,5.5,4,6.1c-0.2-3.9,0.1-7.1,2.3-8.9c2.5,1.6,4.5,3.6,7,5.1c0.4-8.3-2.2-16.6-7.5-20.3
			c0.4,1.7,0.2,3.3,0.7,5.1c-1.8-2.5-4.8-4.7-7.4-6c0.8,1.7,1.6,3.4,2.5,5.1c-3.5-4.2-10.6-5.7-14.5-8.8c0.6,0.8,1.4,1.5,1.6,2.8
			C49.8,25.1,43,18.9,39,13.4c-1.7-2.3-5.8-10.9-9.6-7.4c-2.9,2.7-5.6,11.4-7,16.1c-0.6,2-1.7,3.9-2.1,5.6
			c-3.5,14.5,4.4,27.1,3.3,41.2c-0.6,7.5,2.2,12.4,4.7,17c-3.5,0.3-4.9,2.7-8.1,3.3c3.6,1,7.2,2.1,11.4,2.5
			c-0.7,1.2-1.7,2.2-1.4,4.4c0.8,0.1,1.4-0.9,1.9-0.5c-0.6,1.7-0.7,3.7-0.7,6c1.8-2.5,4.2-4.6,8.2-4.9c-3,3.1-6.5,9.5-3.9,15.4
			c-0.2-1.9,0.2-3.2,1.2-4c1,2.7,2.2,5,3.2,7.7c-1.9,3.7-8.4,0.7-10.2-0.9c0.8,1.2,2.2,2.9,2.5,4c-3.9-1.4-6.5-4.8-7.2-8.8
			C26.2,123.4,39.9,130.7,52.8,124.6z"/>
		<path class="st0" d="M50.7,157.4c-1.2-3.1-1-7.6-1.8-11.2c-1.7,0.6-3.7,1.9-5.1,2.3c0.3-2.3,0.9-4.5,1.8-6.7
			c-1.6,0.2-2.5,1.1-3.9,1.6c1.8-3.4,3.1-7.1,4-10.9c-2,0.4-1.5,0.7-3.4,1.2c0.2-2,0.5-2.5,2.5-4.6c-4.3,1.4-4.8,6.6-9.6,7.5
			c1.8,0.3,4.3,0.1,5.4-0.2c-0.6,4.5-2.9,7.3-6,9.3c2,0.3,3.3-1,4.9-0.5c-1.5,3.8-0.6,8.6,0.9,11.7c0.4-2.7,2.6-4.5,4.4-5.3
			c-0.1,7.2,4.5,9.7,6.8,14.5c-0.2-2-0.7-3.6-0.5-6c2.2,2.9,4.9,6.2,7.9,7.7c-3.2-3.9-4.5-9.9-5.6-15.9
			C52.3,153.6,51.6,155.6,50.7,157.4z"/>
		<path class="st0" d="M116.7,141.6c2.1,1.2,3.9,0.7,4.8-0.9c1.2-2.9,1.4-5.4,0.7-7.4c-0.3-1-0.8-1.9-1.5-2.7
			c-5.6-4.5-16-3.9-22.8-0.9c-1,0.4-1.5,1.4-2,2.2c-1.5,2.5-1.4,5.8,1.4,9.8c1.2,1.2,2.8,0.3,3.4-0.5c0.7-1.5-1-3.7,0.5-4.5
			c6.1,0.1,3.8,6.6,0.7,8.2c1.3,1.8,3.6,2.7,6.1,3.4c0.3-3.1,0-6.7,0.4-9.7c0.2,3.2,0.7,6.2,0.9,9.5c2.4,0,5.4-1.7,5.5-4.2
			c-1.2-0.3-2.4-0.9-2.7-2.1c-1.1-2.9,1.4-7.9,4.8-5.4C117.8,137.3,115.2,140.4,116.7,141.6z"/>
		<path class="st0" d="M196.7,91c-0.1-7.9-3.2-12.8-5.8-18.2c0.6,0.5,1.4,1.9,2.3,1.6c-3.2-7.9-8.2-15-13.1-20.5
			c1.1,0.5,2.6,1.5,3.9,1.2c-3.7-1.9-6.4-4.9-9.8-7.2c0.6-0.1,1.5,0.5,1.9,0c-4.3-1.8-8.8-3.4-13.1-5.1c0.7-0.1,1.9,0.3,1.9-0.5
			c-2.8-1.5-7.1-0.6-10.2-1.1c1-0.7,1.9-2.3,1.8-3.5c-2.9,0.9-5.6,2.2-8.1,3.9c0.6-1.2,1.3-3,0.9-4.5c-2.1,1.9-5.3,5.2-7.5,7
			c-0.1-1.5-0.1-3-0.9-3.9c-3.6,4.5-7.5,8.8-11.6,13c-9-4.5-16.7,2.7-24,2.5c-4.6-0.2-8.6-4-14.2-2.6c6.9,0.7,11,4.2,15.6,7.2
			c1.1-0.8,2.3-1.5,3.5-2.1c0,3.9,0.9,7.5,0.9,11c-0.1,5.3-3.5,9.2-3.9,13.7c-0.3,4.6,2.4,9.2,3.7,12.4
			c4.3,11.1,13.6,18.3,19.6,25.8c5.5,6.2,9.7,25.9,3,32.2c-6.6,5.1-17.6,1.5-24.4-1.1c-1.7,0.9-3.5,1.6-5.4,2.2
			c-1,0.3-2.1,0.6-3.2,0.9c-5.5,1.4-10.9,1.6-15-0.7c-4.6-2.5-7.1-7.5-7.1-13.2c0-0.4,0-0.8,0.1-1.2c-1.6,5.5-0.6,11.6,3.9,15.8
			c4.7,4.3,10.9,3.7,16.7,2.5c1-0.2,2-0.3,2.9-0.6c2.7-0.6,5.3-1.6,7.6-3c6.3,3.3,20.1,6.5,25.2,0c2.8,2.8,7.5,3.7,11,5.8
			c0.2-0.7-0.8-1.1-0.4-1.6c7.2,2.9,16.6,5.1,26.1,4c-1.6-2.3-2.2-5.5-4-7.5c3.6,2.3,7.2,4.7,9.3,8.6c0.7-5.8-1.6-13.6-4.2-18.6
			c1.5,0.8,3.3,3.1,4.2,3.3c0.1-3.8-1.9-6.4-3-8.4c1.4,0.9,2.9,3.6,4,3.7c-2-4.3-5.3-7.3-5.8-13.1c1.5,1.3,5,1.5,7,1.8
			c-2.1-1.4-4.4-3.5-5.1-5.8c1.9,0,4.6,0.9,5.8-0.4c-2.4-0.5-3.8-1.9-5.1-3.5c2.6,0.1,5,0,6.8-0.7c-6-1.8-7.2-8.4-8.8-14.5
			c1.7,1,2.8,2.6,4.5,3.5c-0.5-4.1-2-7.1-3.5-10.2c2.2,0.7,4,3.7,5.4,4c-0.9-3.8-1.3-8.3-3.2-11.2c1.6,0.9,2.6,3.3,4,3.9
			c-5.1-18.5-9.7-38.5-32.1-39.3c5.5-2.3,12.4,0.8,16.6,2.9c9.6,6.5,12.9,18.9,18.1,30.2c1.8,4,7.5,8.9,12.4,8.6
			c1.8-2.1,0.8-6.9,0.5-10C196.3,90.3,196.3,90.9,196.7,91z M125.7,98.1c0.8-1.9-0.1-5.6,1.1-7.4c0.8-1.3,2.3-2.1,3.9-2
			c-1.4,0.5-2.6,1.5-3.2,2.9c0.3-0.2,0.6-0.3,1-0.3c2.2,0,2.2,3.5,0,3.5c-0.5,0-1-0.2-1.3-0.7c0.2,1.3,0.8,2.5,1.8,3.3
			C127.9,96.9,126.8,96.9,125.7,98.1z M132.6,98.7c-0.4,0-0.7-0.1-1.1-0.3c0.3,0,0.6,0.1,0.8,0.1c2.8,0,5.1-2.2,5.2-5.1
			c0-1.1-0.3-2.1-1-3c1.5,0.9,3,1.8,4.4,2.8C137.4,94.6,137,99,132.6,98.7L132.6,98.7z M155.5,112c0,0,1.2,6.8,0.5,11.1
			c-0.8,5.5-7.7,10.9-8.6,16.7c-1.4-6.2,5.3-12.3,5.6-17.6c0.8-12.5-3.8-16.5-8.1-22.3c2.8,1.6,5.7,4.7,8.6,6.8
			c-0.4-19.2-5.6-33.8-14.2-44.9C148.1,71.7,159.9,91.2,155.5,112L155.5,112z"/>
	</g>
</g>
</svg>
